<svg width="56" height="57" viewBox="0 0 56 57" fill="none" xmlns="http://www.w3.org/2000/svg">
<rect y="0.5" width="56" height="56" rx="28" fill="#FFA43A"/>
<path d="M34.6667 25.8333C34.6667 28.016 33.62 29.9533 31.9947 31.1707L33.5947 33.304C34.756 32.4354 35.6987 31.3079 36.3478 30.0109C36.9968 28.714 37.3343 27.2836 37.3333 25.8333H34.6667ZM28 19.1667C29.7681 19.1667 31.4638 19.869 32.7141 21.1193C33.9643 22.3695 34.6667 24.0652 34.6667 25.8333H37.3333C37.3333 23.358 36.35 20.984 34.5997 19.2337C32.8493 17.4833 30.4754 16.5 28 16.5V19.1667ZM21.3333 25.8333C21.3333 24.0652 22.0357 22.3695 23.286 21.1193C24.5362 19.869 26.2319 19.1667 28 19.1667V16.5C25.5247 16.5 23.1507 17.4833 21.4003 19.2337C19.65 20.984 18.6667 23.358 18.6667 25.8333H21.3333ZM24.0053 31.1707C23.1752 30.5505 22.5013 29.745 22.0374 28.8184C21.5735 27.8917 21.3324 26.8696 21.3333 25.8333H18.6667C18.6657 27.2836 19.0032 28.714 19.6522 30.0109C20.3013 31.3079 21.244 32.4354 22.4053 33.304L24.0053 31.1707ZM26.6627 38.824C26.6205 36.7909 26.2005 34.7834 25.424 32.904L22.96 33.924C23.608 35.4933 23.9613 37.1733 23.9973 38.88L26.6627 38.824ZM29.7893 38.1147C29.2338 38.3925 28.6212 38.5372 28 38.5372C27.3788 38.5372 26.7662 38.3925 26.2107 38.1147L25.0187 40.5C25.9444 40.9628 26.9651 41.2038 28 41.2038C29.0349 41.2038 30.0557 40.9628 30.9813 40.5L29.7893 38.1147ZM30.576 32.9053C29.7993 34.7843 29.3788 36.7913 29.336 38.824L32.0027 38.88C32.0387 37.1733 32.392 35.4933 33.04 33.924L30.576 32.9053ZM30.9813 40.5C31.2829 40.3486 31.5375 40.1176 31.7175 39.8321C31.8975 39.5466 31.9961 39.2174 32.0027 38.88L29.336 38.824C29.3397 38.6757 29.3839 38.5312 29.4638 38.4061C29.5437 38.2811 29.6563 38.1803 29.7893 38.1147L30.9813 40.5ZM23.9973 38.88C24.0107 39.552 24.3893 40.1853 25.0187 40.5L26.2107 38.1147C26.3438 38.1803 26.4563 38.2811 26.5362 38.4061C26.6162 38.5312 26.6603 38.6757 26.664 38.824L23.9973 38.88ZM22.4053 33.304C22.6053 33.456 22.724 33.544 22.8067 33.6107C22.8907 33.68 22.8747 33.6773 22.8373 33.6293L24.944 31.9947C24.6947 31.672 24.308 31.3973 24.0053 31.1707L22.4053 33.304ZM25.424 32.904C25.32 32.652 25.188 32.308 24.944 31.9947L22.8373 33.6293C22.82 33.6053 22.816 33.5933 22.8333 33.6293C22.8759 33.7268 22.9177 33.8246 22.9587 33.9227L25.424 32.904ZM31.9947 31.1707C31.692 31.3973 31.304 31.6733 31.0547 31.9947L33.1627 33.6293C33.1267 33.676 33.1093 33.68 33.1933 33.612C33.276 33.544 33.3933 33.456 33.5947 33.3053L31.9947 31.1707ZM33.04 33.924L33.12 33.7333L33.1667 33.6293C33.184 33.5933 33.18 33.6053 33.1627 33.6293L31.0547 31.9947C30.8107 32.3093 30.68 32.652 30.576 32.9053L33.04 33.924Z" fill="white"/>
<path d="M31.9893 33.8334C30.8086 34.6226 29.4203 35.0439 28 35.0439C26.5798 35.0439 25.1914 34.6226 24.0107 33.8334" fill="white"/>
<path d="M31.9893 33.8334C30.8086 34.6226 29.4203 35.0439 28 35.0439C26.5798 35.0439 25.1914 34.6226 24.0107 33.8334" stroke="white" stroke-width="2"/>
</svg>
