<svg width="24" height="24" viewBox="0 0 24 24" fill="none" xmlns="http://www.w3.org/2000/svg">
<path fill-rule="evenodd" clip-rule="evenodd" d="M12 20.25C14.188 20.25 16.2865 19.3808 17.8336 17.8336C19.3808 16.2865 20.25 14.188 20.25 12C20.25 9.81196 19.3808 7.71354 17.8336 6.16637C16.2865 4.61919 14.188 3.75 12 3.75C9.81196 3.75 7.71354 4.61919 6.16637 6.16637C4.61919 7.71354 3.75 9.81196 3.75 12C3.75 14.188 4.61919 16.2865 6.16637 17.8336C7.71354 19.3808 9.81196 20.25 12 20.25ZM12 22.5C14.7848 22.5 17.4555 21.3938 19.4246 19.4246C21.3938 17.4555 22.5 14.7848 22.5 12C22.5 9.21523 21.3938 6.54451 19.4246 4.57538C17.4555 2.60625 14.7848 1.5 12 1.5C9.21523 1.5 6.54451 2.60625 4.57538 4.57538C2.60625 6.54451 1.5 9.21523 1.5 12C1.5 14.7848 2.60625 17.4555 4.57538 19.4246C6.54451 21.3938 9.21523 22.5 12 22.5ZM7.125 13.875C7.125 13.5766 7.24353 13.2905 7.4545 13.0795C7.66548 12.8685 7.95163 12.75 8.25 12.75H15.75C16.0484 12.75 16.3345 12.8685 16.5455 13.0795C16.7565 13.2905 16.875 13.5766 16.875 13.875C16.875 14.904 16.23 15.8535 15.414 16.494C14.559 17.1645 13.377 17.625 12 17.625C10.623 17.625 9.441 17.1645 8.586 16.494C7.7715 15.8535 7.125 14.904 7.125 13.875ZM15 11.25C14.7016 11.25 14.4155 11.1315 14.2045 10.9205C13.9935 10.7095 13.875 10.4234 13.875 10.125V8.625C13.875 8.32663 13.9935 8.04048 14.2045 7.8295C14.4155 7.61853 14.7016 7.5 15 7.5C15.2984 7.5 15.5845 7.61853 15.7955 7.8295C16.0065 8.04048 16.125 8.32663 16.125 8.625V10.125C16.125 10.4234 16.0065 10.7095 15.7955 10.9205C15.5845 11.1315 15.2984 11.25 15 11.25ZM7.875 10.125C7.875 10.4234 7.99353 10.7095 8.2045 10.9205C8.41548 11.1315 8.70163 11.25 9 11.25C9.29837 11.25 9.58452 11.1315 9.7955 10.9205C10.0065 10.7095 10.125 10.4234 10.125 10.125V8.625C10.125 8.32663 10.0065 8.04048 9.7955 7.8295C9.58452 7.61853 9.29837 7.5 9 7.5C8.70163 7.5 8.41548 7.61853 8.2045 7.8295C7.99353 8.04048 7.875 8.32663 7.875 8.625V10.125Z" fill="#F13993"/>
</svg>
