<svg width="24" height="24" viewBox="0 0 24 24" fill="none" xmlns="http://www.w3.org/2000/svg">
<path d="M8.487 14.887C8.877 14.887 9.193 15.201 9.193 15.587C9.19261 15.6793 9.17403 15.7707 9.13834 15.8558C9.10265 15.9409 9.05054 16.0182 8.98498 16.0832C8.91942 16.1482 8.8417 16.1997 8.75626 16.2346C8.67081 16.2696 8.57932 16.2874 8.487 16.287H5.632C5.5396 16.2875 5.448 16.2698 5.36244 16.2349C5.27688 16.2 5.19904 16.1486 5.13338 16.0836C5.06771 16.0186 5.01551 15.9412 4.97975 15.856C4.944 15.7708 4.92539 15.6794 4.925 15.587C4.925 15.201 5.242 14.887 5.632 14.887H8.487ZM9.177 12.294C9.567 12.294 9.883 12.609 9.883 12.994C9.88261 13.0864 9.864 13.1778 9.82825 13.263C9.79249 13.3482 9.74029 13.4256 9.67462 13.4906C9.60896 13.5556 9.53112 13.607 9.44556 13.6419C9.36 13.6768 9.2684 13.6945 9.176 13.694H5.648C5.55568 13.6944 5.46419 13.6766 5.37874 13.6416C5.2933 13.6067 5.21558 13.5552 5.15002 13.4902C5.08447 13.4252 5.03235 13.3479 4.99666 13.2628C4.96097 13.1777 4.94239 13.0863 4.942 12.994C4.942 12.608 5.258 12.294 5.648 12.294H9.177ZM13.041 8.83401C13.0439 8.27492 13.2686 7.73984 13.6657 7.34629C14.0628 6.95273 14.5999 6.73288 15.159 6.73501C15.7183 6.73288 16.2555 6.95287 16.6526 7.34664C17.0498 7.74041 17.2744 8.27575 17.277 8.83501C17.2738 9.39438 17.0492 9.92971 16.6522 10.3238C16.2553 10.718 15.7184 10.9388 15.159 10.938C14.5995 10.9385 14.0626 10.7175 13.6657 10.3232C13.2688 9.92891 13.0442 9.39347 13.041 8.83401ZM19.3 15.393C19.4 16.012 18.922 16.573 18.295 16.571H12.023C11.8757 16.5713 11.7301 16.5396 11.5963 16.478C11.4625 16.4164 11.3437 16.3265 11.2481 16.2144C11.1525 16.1024 11.0824 15.9709 11.0427 15.829C11.0029 15.6872 10.9945 15.5384 11.018 15.393C11.333 13.451 12.409 11.884 13.814 11.263C14.2254 11.4915 14.6883 11.6115 15.159 11.6115C15.6297 11.6115 16.0926 11.4915 16.504 11.263C17.909 11.884 18.986 13.453 19.3 15.393ZM10.588 11.103C2.208 11.103 10.441 11.101 5.647 11.101C5.5546 11.1015 5.463 11.0838 5.37744 11.0489C5.29188 11.014 5.21404 10.9626 5.14838 10.8976C5.08271 10.8326 5.03051 10.7552 4.99475 10.67C4.959 10.5848 4.94039 10.4934 4.94 10.401C4.94 10.015 5.257 9.70101 5.647 9.70101L10.588 9.70201C10.978 9.70201 11.295 10.016 11.294 10.403C11.294 10.4954 11.2757 10.587 11.2401 10.6723C11.2046 10.7576 11.1525 10.835 11.0869 10.9001C11.0212 10.9652 10.9433 11.0166 10.8577 11.0515C10.7721 11.0863 10.6804 11.1038 10.588 11.103ZM5.648 8.50901C5.55549 8.50993 5.46371 8.49251 5.37797 8.45774C5.29223 8.42298 5.21424 8.37157 5.14849 8.30647C5.08275 8.24138 5.03056 8.1639 4.99495 8.07851C4.95933 7.99312 4.941 7.90152 4.941 7.80901C4.941 7.42301 5.258 7.10901 5.648 7.10901H10.588C10.977 7.10901 11.293 7.42201 11.293 7.80901C11.2919 7.99528 11.217 8.17352 11.0846 8.30458C10.9523 8.43564 10.7733 8.5088 10.587 8.50801L5.648 8.50901ZM13.457 18.626C13.631 18.626 13.798 18.5573 13.9216 18.4348C14.0452 18.3123 14.1154 18.146 14.117 17.972H21.177V5.37201H2.824V17.971H9.883C9.883 18.332 10.178 18.625 10.543 18.625L13.457 18.626ZM24 17.972V18.929C24 19.534 23.504 20.025 22.894 20.025H1.106C0.496 20.025 0 19.535 0 18.929V17.972H1.413V5.35701C1.413 4.59401 2.036 3.97501 2.807 3.97501H21.194C21.964 3.97501 22.588 4.59401 22.588 5.35701V17.972H24Z" fill="#F13993"/>
</svg>
