<svg width="24" height="24" viewBox="0 0 24 24" fill="none" xmlns="http://www.w3.org/2000/svg">
<rect width="24" height="24" rx="4" fill="#F1398F"/>
<path d="M17.3333 15.6668C17.5901 15.667 17.837 15.7659 18.0229 15.9431C18.2087 16.1203 18.3193 16.3623 18.3316 16.6188C18.344 16.8753 18.2572 17.1267 18.0892 17.321C17.9212 17.5152 17.6849 17.6374 17.4293 17.6622L17.3333 17.6668H6.66663C6.40981 17.6667 6.1629 17.5678 5.97703 17.3906C5.79117 17.2133 5.68062 16.9714 5.66828 16.7149C5.65593 16.4584 5.74275 16.2069 5.91074 16.0127C6.07873 15.8184 6.31501 15.6963 6.57063 15.6715L6.66663 15.6668H17.3333ZM17.3333 11.0002C17.5985 11.0002 17.8529 11.1055 18.0404 11.2931C18.2279 11.4806 18.3333 11.7349 18.3333 12.0002C18.3333 12.2654 18.2279 12.5197 18.0404 12.7073C17.8529 12.8948 17.5985 13.0002 17.3333 13.0002H6.66663C6.40141 13.0002 6.14706 12.8948 5.95952 12.7073C5.77198 12.5197 5.66663 12.2654 5.66663 12.0002C5.66663 11.7349 5.77198 11.4806 5.95952 11.2931C6.14706 11.1055 6.40141 11.0002 6.66663 11.0002H17.3333ZM17.3333 6.3335C17.5985 6.3335 17.8529 6.43885 18.0404 6.62639C18.2279 6.81393 18.3333 7.06828 18.3333 7.3335C18.3333 7.59871 18.2279 7.85307 18.0404 8.0406C17.8529 8.22814 17.5985 8.3335 17.3333 8.3335H6.66663C6.40141 8.3335 6.14706 8.22814 5.95952 8.0406C5.77198 7.85307 5.66663 7.59871 5.66663 7.3335C5.66663 7.06828 5.77198 6.81393 5.95952 6.62639C6.14706 6.43885 6.40141 6.3335 6.66663 6.3335H17.3333Z" fill="white"/>
</svg>
