<svg width="24" height="24" viewBox="0 0 24 24" fill="none" xmlns="http://www.w3.org/2000/svg">
<path d="M19.486 20.0217C19.0763 16.4175 17.4315 14.9236 16.2301 13.8342C15.3995 13.0781 15.0001 12.6848 15.0001 12C15.0001 11.3245 15.3981 10.9387 16.2263 10.1981C17.4418 9.11203 19.1063 7.62422 19.487 3.97125C19.5174 3.66435 19.4831 3.35448 19.3862 3.06169C19.2893 2.7689 19.132 2.49972 18.9245 2.27156C18.7029 2.02786 18.4327 1.83329 18.1313 1.7004C17.8299 1.56751 17.504 1.49924 17.1746 1.5H6.82557C6.49573 1.49897 6.16934 1.5671 5.86745 1.69999C5.56557 1.83289 5.2949 2.0276 5.07291 2.27156C4.86603 2.50003 4.70934 2.76933 4.61294 3.06209C4.51654 3.35484 4.48257 3.66456 4.51322 3.97125C4.89244 7.6125 6.55088 9.08953 7.76166 10.1677C8.59791 10.9125 9.0001 11.3011 9.0001 12C9.0001 12.7078 8.59697 13.1044 7.75791 13.8633C6.5626 14.9461 4.92197 16.4287 4.51416 20.0217C4.48108 20.3272 4.51283 20.6363 4.60733 20.9287C4.70184 21.2211 4.85697 21.4902 5.0626 21.7186C5.28505 21.9654 5.55703 22.1626 5.8608 22.2972C6.16457 22.4318 6.4933 22.5009 6.82557 22.5H17.1746C17.5069 22.5009 17.8356 22.4318 18.1394 22.2972C18.4432 22.1626 18.7151 21.9654 18.9376 21.7186C19.1432 21.4902 19.2984 21.2211 19.3929 20.9287C19.4874 20.6363 19.5191 20.3272 19.486 20.0217ZM16.0923 20.25H7.92807C7.19682 20.25 6.99057 19.4062 7.50338 18.8831C8.74463 17.625 11.2501 16.7241 11.2501 15.2812V10.5C11.2501 9.56953 9.46885 8.85937 8.36682 7.35C8.18494 7.10109 8.20322 6.75 8.66541 6.75H15.3559C15.7501 6.75 15.8349 7.09828 15.6559 7.34765C14.5698 8.85937 12.7501 9.56484 12.7501 10.5V15.2812C12.7501 16.7123 15.3615 17.4844 16.5188 18.8845C16.9853 19.4489 16.8221 20.25 16.0923 20.25Z" fill="#F13993"/>
</svg>
