<svg width="56" height="57" viewBox="0 0 56 57" fill="none" xmlns="http://www.w3.org/2000/svg">
<rect y="0.5" width="56" height="56" rx="28" fill="#15B2A7"/>
<path d="M21.3333 36.5V35.1667C21.3333 33.3986 22.0357 31.7029 23.286 30.4526C24.5362 29.2024 26.2319 28.5 28 28.5M28 28.5C29.7681 28.5 31.4638 29.2024 32.714 30.4526C33.9643 31.7029 34.6667 33.3986 34.6667 35.1667V36.5M28 28.5C29.0609 28.5 30.0783 28.0786 30.8284 27.3284C31.5786 26.5783 32 25.5609 32 24.5C32 23.4391 31.5786 22.4217 30.8284 21.6716C30.0783 20.9214 29.0609 20.5 28 20.5C26.9391 20.5 25.9217 20.9214 25.1716 21.6716C24.4214 22.4217 24 23.4391 24 24.5C24 25.5609 24.4214 26.5783 25.1716 27.3284C25.9217 28.0786 26.9391 28.5 28 28.5ZM13.3333 36.5V35.1667C13.3333 34.1058 13.7548 33.0884 14.5049 32.3382C15.255 31.5881 16.2725 31.1667 17.3333 31.1667M17.3333 31.1667C18.0406 31.1667 18.7188 30.8857 19.2189 30.3856C19.719 29.8855 20 29.2072 20 28.5C20 27.7928 19.719 27.1145 19.2189 26.6144C18.7188 26.1143 18.0406 25.8333 17.3333 25.8333C16.6261 25.8333 15.9478 26.1143 15.4477 26.6144C14.9476 27.1145 14.6667 27.7928 14.6667 28.5C14.6667 29.2072 14.9476 29.8855 15.4477 30.3856C15.9478 30.8857 16.6261 31.1667 17.3333 31.1667ZM42.6667 36.5V35.1667C42.6667 34.1058 42.2452 33.0884 41.4951 32.3382C40.7449 31.5881 39.7275 31.1667 38.6667 31.1667M38.6667 31.1667C39.3739 31.1667 40.0522 30.8857 40.5523 30.3856C41.0524 29.8855 41.3333 29.2072 41.3333 28.5C41.3333 27.7928 41.0524 27.1145 40.5523 26.6144C40.0522 26.1143 39.3739 25.8333 38.6667 25.8333C37.9594 25.8333 37.2811 26.1143 36.781 26.6144C36.2809 27.1145 36 27.7928 36 28.5C36 29.2072 36.2809 29.8855 36.781 30.3856C37.2811 30.8857 37.9594 31.1667 38.6667 31.1667Z" stroke="white" stroke-width="2.5" stroke-linecap="round" stroke-linejoin="round"/>
</svg>
