<svg width="56" height="57" viewBox="0 0 56 57" fill="none" xmlns="http://www.w3.org/2000/svg">
<rect y="0.5" width="56" height="56" rx="28" fill="#F1398F"/>
<path fill-rule="evenodd" clip-rule="evenodd" d="M22.768 22.18L22.8946 22.2907L34.2093 33.604C34.3576 33.7522 34.4689 33.9332 34.5341 34.1324C34.5993 34.3316 34.6167 34.5434 34.5847 34.7506C34.5528 34.9577 34.4724 35.1544 34.3502 35.3247C34.228 35.495 34.0673 35.6341 33.8813 35.7307L33.7266 35.7974L19.88 40.9C17.2773 41.86 14.7426 39.4134 15.5333 36.8147L15.6 36.62L20.7013 22.7734C20.7687 22.5899 20.8757 22.4236 21.0146 22.2861C21.1534 22.1486 21.3208 22.0433 21.5049 21.9776C21.689 21.912 21.8852 21.8876 22.0797 21.9062C22.2743 21.9249 22.4624 21.986 22.6306 22.0854L22.768 22.18ZM22.4826 25.6494L18.1026 37.5427C18.0619 37.6534 18.0513 37.7728 18.0718 37.8889C18.0923 38.005 18.1432 38.1136 18.2194 38.2036C18.2956 38.2936 18.3943 38.3618 18.5054 38.4012C18.6165 38.4407 18.7361 38.4499 18.852 38.428L18.9586 38.3974L30.8493 34.016L22.4826 25.6494ZM34.8093 27.972C36.024 28.036 37.6893 28.292 39.1373 29.1614C39.4309 29.3354 39.6465 29.6154 39.7398 29.9436C39.8332 30.2719 39.7971 30.6234 39.639 30.9258C39.481 31.2283 39.213 31.4586 38.8902 31.5694C38.5674 31.6802 38.2145 31.663 37.904 31.5214L37.7653 31.448C36.856 30.9014 35.6933 30.688 34.6693 30.6347C34.2474 30.6114 33.8244 30.6132 33.4026 30.64L32.9813 30.6814C32.6335 30.7263 32.282 30.6323 32.003 30.4198C31.7239 30.2074 31.5398 29.8936 31.4906 29.5463C31.4413 29.1991 31.5308 28.8465 31.7397 28.5648C31.9486 28.2831 32.2601 28.095 32.6066 28.0414C33.3369 27.9471 34.0745 27.9235 34.8093 27.9707M37.5093 24.256C37.849 24.2567 38.1757 24.3871 38.4225 24.6205C38.6694 24.8539 38.8179 25.1727 38.8376 25.5119C38.8573 25.851 38.7469 26.1849 38.5288 26.4454C38.3106 26.7059 38.0013 26.8732 37.664 26.9134L37.5093 26.9227H36.5653C36.2256 26.922 35.8989 26.7916 35.6521 26.5582C35.4052 26.3248 35.2568 26.006 35.237 25.6668C35.2173 25.3277 35.3277 24.9938 35.5459 24.7333C35.764 24.4729 36.0733 24.3055 36.4106 24.2654L36.5653 24.256H37.5093ZM33.2666 23.2334C33.4962 23.463 33.6341 23.7684 33.6545 24.0925C33.6749 24.4165 33.5763 24.7368 33.3773 24.9934L33.2666 25.1187L31.8533 26.5334C31.6139 26.775 31.2912 26.9161 30.9512 26.9276C30.6113 26.9391 30.2797 26.8203 30.0245 26.5954C29.7693 26.3705 29.6097 26.0566 29.5784 25.7179C29.547 25.3791 29.6463 25.0413 29.856 24.7734L29.9666 24.648L31.38 23.2347C31.5038 23.1107 31.6509 23.0124 31.8127 22.9453C31.9746 22.8782 32.1481 22.8437 32.3233 22.8437C32.4985 22.8437 32.672 22.8782 32.8339 22.9453C32.9958 23.0124 33.1428 23.1094 33.2666 23.2334ZM29.8173 16.2134C30.4146 18.008 30.0946 19.9734 29.7213 21.3467C29.4979 22.2032 29.1897 23.0353 28.8013 23.8307C28.6434 24.1472 28.3663 24.388 28.0308 24.5001C27.6954 24.6123 27.3291 24.5866 27.0126 24.4287C26.6961 24.2708 26.4553 23.9937 26.3432 23.6582C26.231 23.3228 26.2567 22.9565 26.4146 22.64C26.7249 22.0012 26.9705 21.333 27.148 20.6454C27.4506 19.536 27.6026 18.332 27.3693 17.3454L27.288 17.0574C27.2299 16.8906 27.2055 16.714 27.2162 16.5377C27.2269 16.3615 27.2725 16.1891 27.3504 16.0306C27.4282 15.8721 27.5368 15.7307 27.6698 15.6145C27.8028 15.4983 27.9575 15.4097 28.125 15.3538C28.2925 15.2979 28.4695 15.2759 28.6456 15.2889C28.8216 15.302 28.9934 15.3499 29.1508 15.4298C29.3083 15.5098 29.4483 15.6202 29.5627 15.7547C29.6771 15.8892 29.7636 16.0451 29.8173 16.2134ZM37.0373 19.464C37.2873 19.7141 37.4277 20.0531 37.4277 20.4067C37.4277 20.7603 37.2873 21.0993 37.0373 21.3494L36.0946 22.292C35.9716 22.4194 35.8245 22.521 35.6618 22.5908C35.4992 22.6607 35.3242 22.6975 35.1472 22.699C34.9701 22.7006 34.7946 22.6668 34.6307 22.5998C34.4668 22.5328 34.318 22.4338 34.1928 22.3086C34.0676 22.1834 33.9686 22.0345 33.9015 21.8706C33.8345 21.7068 33.8008 21.5312 33.8023 21.3542C33.8038 21.1771 33.8406 21.0022 33.9105 20.8395C33.9804 20.6768 34.082 20.5297 34.2093 20.4067L35.152 19.464C35.402 19.2141 35.7411 19.0737 36.0946 19.0737C36.4482 19.0737 36.7873 19.2141 37.0373 19.464Z" fill="white"/>
</svg>
