<svg width="28" height="28" viewBox="0 0 28 28" fill="none" xmlns="http://www.w3.org/2000/svg">
<rect width="28" height="28" rx="8" fill="#BB2117"/>
<path fill-rule="evenodd" clip-rule="evenodd" d="M19.9993 10H8V12C8.3536 12 8.69272 12.1405 8.94276 12.3905C9.19279 12.6405 9.33326 12.9797 9.33326 13.3333V15.9999C9.33326 17.8853 9.33326 18.8286 9.91923 19.4139C10.5045 19.9999 11.4478 19.9999 13.333 19.9999H14.6663C16.5522 19.9999 17.4948 19.9999 18.0801 19.4139C18.6667 18.8286 18.6667 17.8853 18.6667 15.9999V13.3333C18.6667 12.9797 18.8072 12.6405 19.0572 12.3905C19.3073 12.1405 19.6464 12 20 12L19.9993 10ZM12.9997 13.3333C12.9997 13.1565 12.9295 12.9869 12.8045 12.8619C12.6795 12.7369 12.5099 12.6666 12.3331 12.6666C12.1563 12.6666 11.9867 12.7369 11.8617 12.8619C11.7367 12.9869 11.6665 13.1565 11.6665 13.3333V16.6666C11.6665 16.8434 11.7367 17.013 11.8617 17.138C11.9867 17.263 12.1563 17.3333 12.3331 17.3333C12.5099 17.3333 12.6795 17.263 12.8045 17.138C12.9295 17.013 12.9997 16.8434 12.9997 16.6666V13.3333ZM16.3329 13.3333C16.3329 13.1565 16.2626 12.9869 16.1376 12.8619C16.0126 12.7369 15.843 12.6666 15.6662 12.6666C15.4894 12.6666 15.3199 12.7369 15.1949 12.8619C15.0698 12.9869 14.9996 13.1565 14.9996 13.3333V16.6666C14.9996 16.8434 15.0698 17.013 15.1949 17.138C15.3199 17.263 15.4894 17.3333 15.6662 17.3333C15.843 17.3333 16.0126 17.263 16.1376 17.138C16.2626 17.013 16.3329 16.8434 16.3329 16.6666V13.3333Z" fill="white"/>
<path d="M12.7117 8.24678C12.7877 8.17611 12.955 8.11344 13.1883 8.06878C13.4561 8.02116 13.7276 7.99818 13.9996 8.00011C14.2929 8.00011 14.5782 8.02411 14.8109 8.06878C15.0442 8.11344 15.2109 8.17611 15.2875 8.24744" stroke="white" stroke-width="2" stroke-linecap="round"/>
</svg>
