<svg width="28" height="28" viewBox="0 0 28 28" fill="none" xmlns="http://www.w3.org/2000/svg">
<rect width="28" height="28" rx="8" fill="#15B2A7"/>
<path fill-rule="evenodd" clip-rule="evenodd" d="M13.8728 10.1167H9.41172C8.63175 10.1167 8 10.7494 8 11.5288V18.5878C8 19.3679 8.63175 19.9999 9.41172 19.9999H17.1762C17.9562 19.9999 18.5879 19.3679 18.5879 18.5878V13.4209L15.8252 16.1837C15.5839 16.4274 15.2697 16.5958 14.9245 16.6664L13.0321 17.0451C11.7968 17.2917 10.7084 16.203 10.9554 14.9683L11.3338 13.0755C11.4023 12.7342 11.5702 12.4202 11.8166 12.1741L13.8728 10.1167Z" fill="white"/>
<path fill-rule="evenodd" clip-rule="evenodd" d="M19.8911 8.87807C19.8197 8.70742 19.7151 8.55093 19.5826 8.41672C19.4524 8.28546 19.2953 8.18046 19.121 8.10803C18.9492 8.03679 18.7637 8 18.5761 8C18.3885 8 18.2029 8.03679 18.0311 8.10803C17.8568 8.18046 17.6998 8.28546 17.5695 8.41672L17.1841 8.80207L19.1972 10.8155L19.5826 10.4295C19.7165 10.2963 19.8213 10.1395 19.8911 9.96813C20.0365 9.61776 20.0365 9.22845 19.8911 8.87807ZM18.1998 11.8136L16.186 9.79946L12.8141 13.173C12.7644 13.223 12.7308 13.2855 12.7174 13.353L12.3391 15.2464C12.2897 15.4931 12.5078 15.7104 12.7541 15.6611L14.6472 15.2831C14.7161 15.2686 14.7788 15.2349 14.8272 15.1864L18.1998 11.8136Z" fill="white"/>
</svg>
